<?xml version="1.0" standalone="no"?>
<!DOCTYPE svg PUBLIC "-//W3C//DTD SVG 20010904//EN"
 "http://www.w3.org/TR/2001/REC-SVG-20010904/DTD/svg10.dtd">
<svg version="1.0" xmlns="http://www.w3.org/2000/svg"
 width="880.000000pt" height="880.000000pt" viewBox="0 0 880.000000 880.000000"
 preserveAspectRatio="xMidYMid meet">
<metadata>
Created by potrace 1.11, written by Peter Selinger 2001-2013
</metadata>
<g transform="translate(0.000000,880.000000) scale(0.100000,-0.100000)"
fill="#000000" stroke="none">
<path d="M871 5423 c0 -901 0 -1655 -1 -1675 0 -33 -5 -40 -42 -62 -24 -13
-122 -69 -218 -124 -96 -56 -180 -105 -185 -109 -6 -4 -28 -17 -50 -28 -22
-11 -42 -22 -45 -26 -3 -3 -30 -19 -60 -35 -30 -16 -57 -31 -60 -34 -8 -8 -60
-37 -102 -57 -21 -10 -38 -21 -38 -25 0 -5 -5 -8 -10 -8 -6 0 -22 -7 -36 -16
l-25 -17 48 -27 c26 -14 65 -36 86 -48 20 -12 52 -30 70 -40 41 -24 316 -183
512 -297 83 -48 151 -88 153 -90 2 -2 4 -220 4 -484 l0 -481 159 0 159 0 0 88
c1 48 1 223 1 389 l0 302 47 -26 c26 -14 76 -43 111 -65 34 -21 65 -38 67 -38
2 0 33 -18 69 -40 36 -22 68 -40 70 -40 3 0 22 -11 43 -23 20 -13 57 -35 82
-49 25 -14 108 -62 184 -107 76 -44 140 -81 142 -81 2 0 33 -18 69 -40 36 -22
70 -40 75 -40 6 0 10 -4 10 -10 0 -5 5 -10 11 -10 6 0 64 -32 129 -70 65 -39
123 -70 129 -70 6 0 11 -4 11 -9 0 -5 10 -13 23 -17 12 -3 35 -16 50 -26 16
-11 29 -19 31 -17 16 22 116 202 116 210 0 5 4 9 9 9 8 0 17 23 22 54 0 5 -19
21 -42 34 -24 14 -57 33 -74 42 -42 24 -529 306 -590 341 -27 17 -216 126
-420 243 l-370 213 -2 319 c-1 237 1 321 10 327 46 29 97 59 127 74 19 9 37
19 40 22 5 6 21 15 88 52 20 11 51 29 67 40 17 10 39 23 50 29 11 5 45 24 76
42 310 181 476 276 507 293 20 11 39 22 42 25 3 3 16 11 30 18 14 6 32 16 40
22 27 18 221 130 226 130 2 0 27 15 56 33 29 18 64 38 78 45 14 7 35 21 48 30
l22 17 -56 95 c-31 52 -66 114 -78 136 l-22 41 -118 -68 c-65 -38 -120 -69
-122 -69 -2 0 -25 -13 -51 -29 -92 -56 -138 -82 -155 -88 -10 -3 -18 -9 -18
-14 0 -5 -4 -9 -9 -9 -5 0 -149 -81 -320 -180 -172 -99 -316 -180 -322 -180
-5 0 -9 -3 -9 -8 0 -4 -21 -18 -47 -32 -27 -13 -76 -41 -111 -62 -34 -21 -64
-38 -66 -38 -2 0 -4 699 -5 1553 0 853 -1 1564 -1 1580 l0 27 -159 0 -159 0
-1 -1637z m0 -2213 c1 -67 -1 -124 -4 -126 -7 -7 -217 116 -217 126 0 5 12 15
28 23 33 17 116 64 157 88 16 10 31 17 32 15 2 -2 4 -58 4 -126z"/>
<path d="M4927 4407 c-9 -18 -30 -54 -47 -82 -16 -27 -33 -57 -37 -65 -4 -8
-20 -37 -36 -65 -98 -165 -207 -359 -207 -366 0 -5 -4 -9 -9 -9 -5 0 -11 -6
-13 -13 -2 -7 -32 -63 -68 -125 l-65 -112 -482 0 -482 0 2 -157 2 -158 387 -5
386 -5 -69 -120 c-38 -66 -74 -127 -79 -135 -6 -8 -15 -27 -21 -42 -6 -16 -15
-28 -20 -28 -5 0 -9 -6 -9 -14 0 -8 -6 -21 -12 -28 -7 -8 -18 -23 -24 -33 -6
-11 -22 -41 -36 -66 -21 -37 -342 -595 -474 -821 l-33 -57 90 -53 c50 -29 112
-65 139 -81 l48 -27 26 46 c14 26 26 50 26 54 0 5 3 10 8 12 6 3 68 106 130
218 14 25 46 81 72 125 46 77 519 898 554 960 9 17 25 44 35 60 l18 30 320 3
321 2 31 -50 c17 -28 31 -52 31 -55 0 -3 17 -33 38 -67 21 -35 41 -70 45 -78
4 -8 20 -36 35 -61 15 -25 65 -112 112 -193 47 -81 92 -159 101 -174 16 -27
60 -105 86 -152 8 -14 23 -41 35 -60 11 -19 79 -136 150 -260 72 -124 148
-255 170 -293 l39 -67 42 24 c113 67 193 112 209 118 21 9 23 26 5 53 -12 18
-28 46 -93 164 -11 19 -23 40 -27 45 -8 11 -259 445 -298 516 -11 19 -28 49
-38 65 -18 30 -234 404 -279 483 l-24 42 1581 0 1581 0 0 160 0 160 -1671 0
-1671 0 -19 23 c-10 12 -18 30 -19 39 0 9 -4 18 -9 20 -7 2 -36 51 -150 251
-9 16 -20 36 -26 45 -5 9 -44 76 -85 147 -41 72 -82 142 -90 156 -8 14 -34 60
-58 102 -24 42 -47 79 -51 81 -4 3 -15 -9 -24 -27z m58 -665 c15 -26 39 -67
52 -92 14 -25 29 -49 34 -54 20 -22 3 -26 -121 -26 -71 0 -130 2 -130 5 0 14
126 223 132 219 3 -2 19 -26 33 -52z"/>
</g>
</svg>
